<svg width="50" height="50" viewBox="0 0 50 50" fill="none" xmlns="http://www.w3.org/2000/svg">
<path d="M49.389 46.4438L35.1704 32.225C37.9246 28.8229 39.5829 24.5 39.5829 19.7917C39.5829 8.8792 30.7038 0 19.7914 0C8.879 0 0 8.8791 0 19.7916C0 30.7041 8.8791 39.5833 19.7915 39.5833C24.4997 39.5833 28.8226 37.925 32.2246 35.1708L46.4432 49.3896C46.8495 49.7958 47.3828 50 47.9162 50C48.4496 50 48.9829 49.7958 49.3891 49.3896C50.2036 48.575 50.2036 47.2583 49.389 46.4438ZM19.7915 35.4166C11.1749 35.4166 4.16665 28.4083 4.16665 19.7916C4.16665 11.1749 11.1749 4.1666 19.7915 4.1666C28.4081 4.1666 35.4163 11.1749 35.4163 19.7916C35.4163 28.4083 28.408 35.4166 19.7915 35.4166Z" fill="white"/>
</svg>
