<svg width="50" height="50" viewBox="0 0 50 50" fill="none" xmlns="http://www.w3.org/2000/svg">
<path fill-rule="evenodd" clip-rule="evenodd" d="M24.9917 0C19.0567 0.00311173 13.3162 2.12729 8.79677 5.99271C4.27737 9.85813 1.27375 15.2127 0.322982 21.099C-0.627787 26.9854 0.536284 33.0196 3.60707 38.1227C6.67786 43.2258 11.4551 47.065 17.0846 48.9539C18.3266 49.1868 18.7944 48.409 18.7944 47.7476C18.7944 47.0862 18.7695 45.1687 18.7612 43.0723C11.8063 44.5905 10.3366 40.1065 10.3366 40.1065C9.20232 37.1948 7.56293 36.4294 7.56293 36.4294C5.29429 34.8738 7.73268 34.9029 7.73268 34.9029C10.2456 35.0817 11.5662 37.4943 11.5662 37.4943C13.7934 41.3336 17.4158 40.223 18.8399 39.5741C19.0634 37.9477 19.7134 36.8412 20.4296 36.2131C14.8739 35.5809 9.03672 33.4262 9.03672 23.801C9.00228 21.3048 9.9242 18.8907 11.6117 17.0584C11.355 16.4261 10.4981 13.8721 11.856 10.4031C11.856 10.4031 13.9549 9.72922 18.7323 12.9778C22.83 11.8519 27.1534 11.8519 31.2512 12.9778C36.0244 9.72922 38.1192 10.4031 38.1192 10.4031C39.4812 13.8638 38.6243 16.4178 38.3676 17.0584C40.0605 18.891 40.9843 21.3093 40.9467 23.8093C40.9467 33.4553 35.0971 35.5809 29.5331 36.2007C30.4273 36.9827 31.2264 38.5092 31.2264 40.8552C31.2264 44.2161 31.1974 46.9198 31.1974 47.7476C31.1974 48.4173 31.6486 49.1993 32.9154 48.9539C38.5456 47.0648 43.3233 43.2249 46.394 38.1209C49.4647 33.0169 50.6282 26.9818 49.6764 21.0949C48.7245 15.2081 45.7194 9.85343 41.1985 5.98867C36.6776 2.12392 30.9358 0.00113936 25 0H24.9917Z" fill="#FF0000"/>
</svg>
